<svg width="165" height="150" viewBox="0 0 165 150" fill="none" xmlns="http://www.w3.org/2000/svg">
<g clip-path="url(#clip0_133_2)">
<path d="M70.1095 28.125V46.9336C63.5688 47.2617 58.6162 48.3469 55.2569 50.1914C51.8951 52.0359 49.5335 55.0266 48.1697 59.1656C46.8084 63.3047 46.1252 69.225 46.1252 76.9289H70.1095V121.8H20.9163V79.1414C20.9163 61.5211 25.0723 48.6141 33.3841 40.418C41.6986 32.2219 53.9395 28.125 70.1095 28.125ZM144.375 28.125V46.9336C137.834 47.2617 132.884 48.307 129.522 50.0695C126.161 51.8297 123.729 54.8227 122.231 59.0437C120.734 63.2625 119.983 69.225 119.983 76.9289H144.375V121.8H94.9111V79.1414C94.9111 61.5211 99.0438 48.6141 107.309 40.418C115.577 32.2219 127.932 28.125 144.375 28.125Z" fill="#DFDBCA"/>
</g>
<defs>
<clipPath id="clip0_133_2">
<rect width="165" height="150" fill="white"/>
</clipPath>
</defs>
</svg>
